<svg viewBox="0 0 32 32" xmlns="http://www.w3.org/2000/svg">
    <path d="M0 0h32v32H0z" fill="#ff1493" />
    <path d="M5.53 3.79v1h3v-1h-3zm4 0v1h3v-1h-3zm4 0v1h3v-1h-3zm4 0v1h3v-1h-3zm4 0v1h3v-1h-3zm4 0v1h3v-1h-3zm-21.5.5v3h1v-3h-1zm24 1v3h1v-3h-1zM7.93 7.72v3.43h17.1V7.72H7.93zm-3.92.568v3h1v-3h-1zm24 1v3h1v-3h-1zm-24 3v3h1v-3h-1zm3.92.611v1.71h17.1v-1.71H7.93zm20.1.389v3h1v-3h-1zm-24 3v3h1v-3h-1zm3.92.041v1.71h17.1v-1.71H7.95zm20.1.959v3h1v-3h-1zm-20.1 2.47v1.71h17.1v-1.71H7.95zm-3.92.529v3h1v-3h-1zm24 1v3h1v-3h-1zm-20.1 1.9v1.71h17.1v-1.71H7.93zm-3.92 1.1v3h1v-3h-1zm24 1v3h1v-3h-1zm-23.5 2.5v1h3v-1h-3zm4 0v1h3v-1h-3zm4 0v1h3v-1h-3zm4 0v1h3v-1h-3zm4 0v1h3v-1h-3zm4 0v1h3v-1h-3z" fill="#fff" style="font-feature-settings:normal;font-variant-alternates:normal;font-variant-caps:normal;font-variant-ligatures:normal;font-variant-numeric:normal;font-variant-position:normal;isolation:auto;mix-blend-mode:normal;shape-padding:0;text-decoration-color:#000;text-decoration-line:none;text-decoration-style:solid;text-indent:0;text-orientation:mixed;text-transform:none" paint-order="markers stroke fill" white-space="normal" />
</svg>
